{"title":"Helmut Dziuba - Sabine Kleist, sieben Jahre (1982)","uid":5399594,"size":915075140,"categoryP":"video","categoryS":"movies","magnet":"?xt=urn:btih:5dd015680c40aa1eb78c5cfc3f37ac3dbfe75373&amp;dn=Helmut+Dziuba+-+Sabine+Kleist%2C+sieben+Jahre+%281982%29&amp;tr=udp%3A%2F%2Ftracker.openbittorrent.com%3A80&amp;tr=udp%3A%2F%2Fopen.demonii.com%3A1337&amp;tr=udp%3A%2F%2Ftracker.coppersurfer.tk%3A6969&amp;tr=udp%3A%2F%2Fexodus.desync.com%3A6969","seeders":0,"leechers":1,"uploader":"mfccorrea","files":3,"time":1267373735,"description":"Little Sabine has spent her childhood in an orphanage after her parents died in a car accident.  When one of the women in charge at the orphanage, Edith, leaves to have a baby, Sabine runs away, because Edith was the only adult there she could trust.  She then wanders through the city to find someone to take her in.  She meets a lot of people on her journey, but she seems out of place everywhere she goes until, at last, she realizes that there is a special place where she belongs.\n\n   General\n      Complete name : sabine kleist.avi\n      Format : AVI\n      Format/Info : Audio Video Interleave\n      File size : 856 MiB\n      Duration : 1h 9mn\n      Overall bit rate : 1 722 Kbps\n      Writing application : FairUse Wizard - http://fairusewizard.com\n      Writing library : The best and REALLY easy backup tool\n   Video #0\n      ID : 0\n      Format : MPEG-4 Visual\n      Format profile : AdvancedSimple@L5\n      Format settings, BVOP : Yes\n      Format settings, QPel : No\n      Format settings, GMC : No warppoints\n      Format settings, Matrix : Default (MPEG)\n      Muxing mode : Packed bitstream\n      Codec ID : XVID\n      Codec ID/Hint : XviD\n      Duration : 1h 9mn\n      Bit rate : 1 521 Kbps\n      Width : 704 pixels\n      Height : 416 pixels\n      Display aspect ratio : 1.692\n      Frame rate : 25.000 fps\n      Resolution : 24 bits\n      Colorimetry : 4:2:0\n      Scan type : Progressive\n      Bits/(Pixel*Frame) : 0.208\n      Stream size : 756 MiB (88%)\n      Writing library : XviD 1.2.0.dev47 (UTC 2006-11-01)\n   Audio #1\n      ID : 1\n      Format : AC-3\n      Format/Info : Audio Coding 3\n      Codec ID : 2000\n      Duration : 1h 9mn\n      Bit rate mode : Constant\n      Bit rate : 192 Kbps\n      Channel(s) : 2 channels\n      Channel positions : L R\n      Sampling rate : 48.0 KHz\n      Stream size : 95.3 MiB (11%)\n      Alignment : Split accross interleaves\n      Interleave, duration : 40 ms (1.00 video frame)\n      Interleave, preload duration : 500 ms\n\nIMDB: tt0084623\n\nGerman audio; multilanguage subpack (Arabic, Deutsch, English, EspaÃƒÂ±ol, FranÃƒÂ§ais, Italiano, Japanese, PortuguÃƒÂªs, Russian, Turkish, Chinese)\n\nMy rip of the Goethe Institut DVD\n\nHelmut Dziuba - Sabine Kleist, sieben Jahre (1982)","torrent":{"xt":"urn:btih:5dd015680c40aa1eb78c5cfc3f37ac3dbfe75373","amp;dn":"Helmut+Dziuba+-+Sabine+Kleist%2C+sieben+Jahre+%281982%29","amp;tr":["udp%3A%2F%2Ftracker.openbittorrent.com%3A80","udp%3A%2F%2Fopen.demonii.com%3A1337","udp%3A%2F%2Ftracker.coppersurfer.tk%3A6969","udp%3A%2F%2Fexodus.desync.com%3A6969"],"infoHash":"5dd015680c40aa1eb78c5cfc3f37ac3dbfe75373","infoHashBuffer":{"type":"Buffer","data":[93,208,21,104,12,64,170,30,183,140,92,252,63,55,172,61,191,231,83,115]},"announce":[],"urlList":[]}}